<svg xmlns="http://www.w3.org/2000/svg" width="47" height="53" viewBox="0 0 47 53">
  <g id="Group_1" data-name="Group 1" transform="translate(-258 -227)">
    <path id="Rectangle_1" data-name="Rectangle 1" d="M5,0H33A14,14,0,0,1,47,14V48a5,5,0,0,1-5,5H5a5,5,0,0,1-5-5V5A5,5,0,0,1,5,0Z" transform="translate(258 227)" fill="#f0c923"/>
    <g id="Rectangle_3" data-name="Rectangle 3" transform="translate(258 239)" fill="#fff" stroke="#d0d0d0" stroke-width="1">
      <path d="M5,0H47a0,0,0,0,1,0,0V36a5,5,0,0,1-5,5H5a5,5,0,0,1-5-5V5A5,5,0,0,1,5,0Z" stroke="none"/>
      <path d="M5,.5H46a.5.5,0,0,1,.5.5V36A4.5,4.5,0,0,1,42,40.5H5A4.5,4.5,0,0,1,.5,36V5A4.5,4.5,0,0,1,5,.5Z" fill="none"/>
    </g>
    <g id="Rectangle_2" data-name="Rectangle 2" transform="translate(258 239)" fill="#eae8e1" stroke="#d0d0d0" stroke-width="1">
      <path d="M0,0H19a0,0,0,0,1,0,0V41a0,0,0,0,1,0,0H5a5,5,0,0,1-5-5V0A0,0,0,0,1,0,0Z" stroke="none"/>
      <path d="M1,.5H18a.5.5,0,0,1,.5.5V40a.5.5,0,0,1-.5.5H5A4.5,4.5,0,0,1,.5,36V1A.5.5,0,0,1,1,.5Z" fill="none"/>
    </g>
    <text id="CSV" transform="translate(261 237)" fill="#fff" font-size="10" font-family="Roboto-Black, Roboto" font-weight="800"><tspan x="0" y="0">CSV</tspan></text>
    <path id="Path_1" data-name="Path 1" d="M258.774,246.264h45.3" fill="none" stroke="#d0d0d0" stroke-width="1"/>
    <path id="Path_2" data-name="Path 2" d="M258.774,246.264h45.3" transform="translate(0 6)" fill="none" stroke="#d0d0d0" stroke-width="1"/>
    <path id="Path_3" data-name="Path 3" d="M258.774,246.264h45.3" transform="translate(0 12)" fill="none" stroke="#d0d0d0" stroke-width="1"/>
    <path id="Path_4" data-name="Path 4" d="M258.774,246.264h45.3" transform="translate(0 18)" fill="none" stroke="#d0d0d0" stroke-width="1"/>
    <path id="Path_5" data-name="Path 5" d="M258.774,246.264h45.3" transform="translate(0 24)" fill="none" stroke="#d0d0d0" stroke-width="1"/>
    <path id="Path_6" data-name="Path 6" d="M258.774,246.264h45.3" transform="translate(0 30)" fill="none" stroke="#d0d0d0" stroke-width="1"/>
    <path id="Path_13" data-name="Path 13" d="M259.017,246.82h17.035v5.088H259.017Z" transform="translate(-0.058 -0.128)" fill="#f0c92d"/>
  </g>
</svg>
