<svg id="Layer_1" data-name="Layer 1" xmlns="http://www.w3.org/2000/svg" viewBox="0 0 216.83 137.56"><defs><style>.cls-1{fill:#fff;}.cls-2,.cls-5{fill:#336;}.cls-3{fill:#1a005f;}.cls-4{fill:none;}.cls-5{isolation:isolate;font-size:13px;font-family:ArialMT, Arial;}.cls-6{letter-spacing:-0.07em;}.cls-7{letter-spacing:-0.06em;}.cls-8{letter-spacing:-0.02em;}</style></defs><title>EDMDataServices2</title><g id="predictive_analytic" data-name="predictive analytic"><path class="cls-1" d="M166.1,90.3A26.1,26.1,0,1,1,140,64.2,26.12,26.12,0,0,1,166.1,90.3Z" transform="translate(-5.4 -11.2)"/><path class="cls-1" d="M91.5,13.8V120.1a2.56,2.56,0,0,1-2.5,2.6H7.9a2.5,2.5,0,0,1-2.5-2.6h0V13.8a2.56,2.56,0,0,1,2.5-2.6H89A2.63,2.63,0,0,1,91.5,13.8Z" transform="translate(-5.4 -11.2)"/><path class="cls-1" d="M25.8,30.5h80.1a2.58,2.58,0,0,1,2.6,2.6V138.5a2.58,2.58,0,0,1-2.6,2.6H25.8a2.5,2.5,0,0,1-2.5-2.6V33A2.48,2.48,0,0,1,25.8,30.5Z" transform="translate(-5.4 -11.2)"/><path class="cls-2" d="M25.8,25a8,8,0,0,0-8,8.1v89.7h5.5V33a2.48,2.48,0,0,1,2.5-2.5H91.5V25Z" transform="translate(-5.4 -11.2)"/><rect class="cls-2" x="31.5" y="60.4" width="41.4" height="6"/><text x="-5.4" y="-11.2"/><path class="cls-2" d="M131.1,160.9" transform="translate(-5.4 -11.2)"/><path class="cls-2" d="M76.6,161.2" transform="translate(-5.4 -11.2)"/><rect class="cls-1" x="142.3" y="6" width="5.5" height="6"/><rect class="cls-1" x="127.7" y="6" width="5.5" height="6"/><rect class="cls-1" x="113.1" y="6" width="5.5" height="6"/><rect class="cls-1" x="142.3" y="19" width="5.5" height="6"/><path class="cls-1" d="M221.4,146.3a5.12,5.12,0,0,1-7.2,1.6l-41.2-28-3.8-2.6a34.79,34.79,0,0,0,5.9-8.8l3.8,2.6,40.9,27.8A5.41,5.41,0,0,1,221.4,146.3Z" transform="translate(-5.4 -11.2)"/><path class="cls-1" d="M169.6,61.9a38.87,38.87,0,0,0-5.3-4.6,40.86,40.86,0,1,0,5.3,4.6ZM160.9,106a27.83,27.83,0,0,1-8.1,7.2,26.31,26.31,0,1,1,8.1-7.2Z" transform="translate(-5.4 -11.2)"/><path class="cls-1" d="M98.9,88c0,.8-.1,1.6-.1,2.3a17.7,17.7,0,0,0,.1,2.3l.1.8.3,2.4c0,.3.1.6.1.9a25.58,25.58,0,0,0,.5,2.7,1.42,1.42,0,0,0,.2.6,21.72,21.72,0,0,0,.7,2.4l.3.9c.1.3.2.7.3,1l.3.9c.4.9.8,1.9,1.2,2.8.2.5.5.9.7,1.4a10.93,10.93,0,0,0,.8,1.5l.1.2c.3.4.5.9.8,1.3a.1.1,0,0,0,.1.1c.3.5.7,1,1,1.5l.1.1c.3.4.7.9,1,1.3a13.44,13.44,0,0,0,1.1,1.4v7.9c-.2-.1-.3-.3-.4-.4-.7-.7-1.4-1.3-2.1-2l-.1-.1a6.89,6.89,0,0,1-1.1-1.3,46.59,46.59,0,0,1,3.7-65v7.9a7.55,7.55,0,0,0-1.1,1.4c-.3.5-.7.9-1,1.4s-.7,1-1,1.5l-.9,1.5c-.3.5-.6,1-.9,1.6s-.5.9-.7,1.4a48.85,48.85,0,0,0-2,4.8c-.1.3-.2.5-.3.8-.2.8-.5,1.7-.7,2.5,0,.2-.1.4-.1.6a25.58,25.58,0,0,0-.5,2.7c0,.3-.1.6-.1.9L99,87.3Z" transform="translate(-5.4 -11.2)"/><path class="cls-3" d="M176.6,108.7a41.58,41.58,0,0,1-7.5,10.6l4.7,3.1a44.77,44.77,0,0,0,7.5-10.7Z" transform="translate(-5.4 -11.2)"/><path class="cls-3" d="M139.9,58.7a31.65,31.65,0,1,0,31.6,31.7h0A31.56,31.56,0,0,0,139.9,58.7Zm0,57.8a26.36,26.36,0,0,1-15.8-5.3,23.7,23.7,0,0,1-5-5,26.17,26.17,0,1,1,20.8,10.3Z" transform="translate(-5.4 -11.2)"/><rect class="cls-4" x="18.8" y="26.2" width="75.8" height="29.8"/><text class="cls-5" transform="translate(23.06 35.45)">EDM D<tspan class="cls-6" x="41.89" y="0">AT</tspan><tspan class="cls-7" x="56.57" y="0">A</tspan></text><text class="cls-5" transform="translate(23.76 51.05)">SE<tspan class="cls-8" x="17.34" y="0">R</tspan><tspan x="26.5" y="0">VICES</tspan></text></g><rect class="cls-1" x="31.4" y="85.2" width="41.4" height="6"/></svg>