<svg xmlns="http://www.w3.org/2000/svg" viewBox="0 0 304.71 79.37"><defs><style>.cls-1{font-size:43px;font-family:Lato-Bold, Lato;font-weight:700;}.cls-1,.cls-2{fill:#336;}.cls-2{fill-rule:evenodd;}.cls-3{font-size:12px;fill:#3f424e;font-family:Lato-Regular, Lato;}</style></defs><title>EDMiConnect_logo2Asset 5</title><g id="Layer_2" data-name="Layer 2"><g id="Main_Logo" data-name="Main Logo"><text id="Replace_With_Your_Brand_Name" data-name="Replace With Your Brand Name" class="cls-1" transform="translate(0 45.75)">EDMiConnect</text><g id="Symbol"><path class="cls-2" d="M265.09,5.77a31.14,31.14,0,1,1-29.92,49.11,1,1,0,0,1-.2-.6,1,1,0,0,1,1-1,1,1,0,0,1,.79.4,29.19,29.19,0,1,0,28.12-46,3.12,3.12,0,0,1-5.76-.32,29.25,29.25,0,0,0-7.76,1.4,1.06,1.06,0,0,1-.31.05,1,1,0,0,1-.3-1.9,31.68,31.68,0,0,1,8.34-1.49,3.11,3.11,0,0,1,6,.33Z"/><path class="cls-2" d="M295.05,23.76h0v0h0a37,37,0,0,1-18.6,46.05,2.09,2.09,0,0,1,0,.25A3.11,3.11,0,0,1,270.9,72a37.19,37.19,0,0,1-10.56,1.53,36.75,36.75,0,0,1-16.95-4.11h0a1,1,0,0,1,.44-1.84.94.94,0,0,1,.45.11h0a35.17,35.17,0,0,0,26,2.47v-.07a3.12,3.12,0,0,1,5.46-2,35.06,35.06,0,0,0,17.52-43.59h0v0a1.2,1.2,0,0,1-.06-.33,1,1,0,0,1,1.89-.34Z"/><path class="cls-2" d="M303,40.69a3.11,3.11,0,0,1-1,5.88,42.83,42.83,0,0,1-41.64,32.8c-.79,0-1.59,0-2.37-.07h0a1,1,0,0,1,.05-1.94h.08c.75,0,1.51.06,2.27.06A40.89,40.89,0,0,0,300.07,46.2a3.12,3.12,0,0,1,1-5.78c.12-1.27.19-2.56.19-3.87A40.84,40.84,0,0,0,281.89,1.82h0A1,1,0,0,1,281.4,1a1,1,0,0,1,1.51-.81,42.79,42.79,0,0,1,20.25,36.39C303.16,38,303.09,39.32,303,40.69Z"/></g><g id="Replace_With_Your_Brand_Name-2" data-name="Replace With Your Brand Name"><text class="cls-3" transform="translate(42.94 63.28)">Enterprise Data Management Portal</text></g></g></g></svg>