<svg xmlns="http://www.w3.org/2000/svg" width="47" height="53" viewBox="0 0 47 53">
  <g id="Group_3" data-name="Group 3" transform="translate(-375 -229)">
    <path id="Rectangle_7" data-name="Rectangle 7" d="M5,0H33A14,14,0,0,1,47,14V48a5,5,0,0,1-5,5H5a5,5,0,0,1-5-5V5A5,5,0,0,1,5,0Z" transform="translate(375 229)" fill="#ff9d00"/>
    <g id="Rectangle_8" data-name="Rectangle 8" transform="translate(375 241)" fill="#fff" stroke="#d0d0d0" stroke-width="1">
      <path d="M5,0H47a0,0,0,0,1,0,0V36a5,5,0,0,1-5,5H5a5,5,0,0,1-5-5V5A5,5,0,0,1,5,0Z" stroke="none"/>
      <path d="M5,.5H46a.5.5,0,0,1,.5.5V36A4.5,4.5,0,0,1,42,40.5H5A4.5,4.5,0,0,1,.5,36V5A4.5,4.5,0,0,1,5,.5Z" fill="none"/>
    </g>
    <g id="Rectangle_9" data-name="Rectangle 9" transform="translate(375 241)" fill="#eae8e1" stroke="#d0d0d0" stroke-width="1">
      <path d="M0,0H19a0,0,0,0,1,0,0V41a0,0,0,0,1,0,0H5a5,5,0,0,1-5-5V0A0,0,0,0,1,0,0Z" stroke="none"/>
      <path d="M1,.5H18a.5.5,0,0,1,.5.5V40a.5.5,0,0,1-.5.5H5A4.5,4.5,0,0,1,.5,36V1A.5.5,0,0,1,1,.5Z" fill="none"/>
    </g>
    <text id="JSON" transform="translate(378 239)" fill="#fff" font-size="10" font-family="Roboto-Black, Roboto" font-weight="800"><tspan x="0" y="0">JSON</tspan></text>
    <path id="Path_15" data-name="Path 15" d="M258.774,246.264h45.3" transform="translate(117 2)" fill="none" stroke="#d0d0d0" stroke-width="1"/>
    <path id="Path_16" data-name="Path 16" d="M258.774,246.264h45.3" transform="translate(117 8)" fill="none" stroke="#d0d0d0" stroke-width="1"/>
    <path id="Path_17" data-name="Path 17" d="M258.774,246.264h45.3" transform="translate(117 14)" fill="none" stroke="#d0d0d0" stroke-width="1"/>
    <path id="Path_18" data-name="Path 18" d="M258.774,246.264h45.3" transform="translate(117 20)" fill="none" stroke="#d0d0d0" stroke-width="1"/>
    <path id="Path_19" data-name="Path 19" d="M258.774,246.264h45.3" transform="translate(117 26)" fill="none" stroke="#d0d0d0" stroke-width="1"/>
    <path id="Path_21" data-name="Path 21" d="M258.774,246.264h45.3" transform="translate(117 32)" fill="none" stroke="#d0d0d0" stroke-width="1"/>
    <path id="Path_20" data-name="Path 20" d="M259.017,246.82h17.035v5.088H259.017Z" transform="translate(116.942 1.872)" fill="#fd9d27"/>
  </g>
</svg>
