<svg xmlns="http://www.w3.org/2000/svg" width="47" height="53" viewBox="0 0 47 53">
  <g id="Group_2" data-name="Group 2" transform="translate(-317 -227)">
    <path id="Rectangle_4" data-name="Rectangle 4" d="M5,0H33A14,14,0,0,1,47,14V48a5,5,0,0,1-5,5H5a5,5,0,0,1-5-5V5A5,5,0,0,1,5,0Z" transform="translate(317 227)" fill="#114c88"/>
    <g id="Rectangle_5" data-name="Rectangle 5" transform="translate(317 239)" fill="#fff" stroke="#d0d0d0" stroke-width="1">
      <path d="M5,0H47a0,0,0,0,1,0,0V36a5,5,0,0,1-5,5H5a5,5,0,0,1-5-5V5A5,5,0,0,1,5,0Z" stroke="none"/>
      <path d="M5,.5H46a.5.5,0,0,1,.5.5V36A4.5,4.5,0,0,1,42,40.5H5A4.5,4.5,0,0,1,.5,36V5A4.5,4.5,0,0,1,5,.5Z" fill="none"/>
    </g>
    <g id="Rectangle_6" data-name="Rectangle 6" transform="translate(317 239)" fill="#eae8e1" stroke="#d0d0d0" stroke-width="1">
      <path d="M0,0H19a0,0,0,0,1,0,0V41a0,0,0,0,1,0,0H5a5,5,0,0,1-5-5V0A0,0,0,0,1,0,0Z" stroke="none"/>
      <path d="M1,.5H18a.5.5,0,0,1,.5.5V40a.5.5,0,0,1-.5.5H5A4.5,4.5,0,0,1,.5,36V1A.5.5,0,0,1,1,.5Z" fill="none"/>
    </g>
    <text id="RDF" transform="translate(320 237)" fill="#fff" font-size="10" font-family="Roboto-Black, Roboto" font-weight="800"><tspan x="0" y="0">RDF</tspan></text>
    <path id="Path_7" data-name="Path 7" d="M258.774,246.264h45.3" transform="translate(59)" fill="none" stroke="#d0d0d0" stroke-width="1"/>
    <path id="Path_8" data-name="Path 8" d="M258.774,246.264h45.3" transform="translate(59 6)" fill="none" stroke="#d0d0d0" stroke-width="1"/>
    <path id="Path_9" data-name="Path 9" d="M258.774,246.264h45.3" transform="translate(59 12)" fill="none" stroke="#d0d0d0" stroke-width="1"/>
    <path id="Path_10" data-name="Path 10" d="M258.774,246.264h45.3" transform="translate(59 18)" fill="none" stroke="#d0d0d0" stroke-width="1"/>
    <path id="Path_11" data-name="Path 11" d="M258.774,246.264h45.3" transform="translate(59 24)" fill="none" stroke="#d0d0d0" stroke-width="1"/>
    <path id="Path_12" data-name="Path 12" d="M258.774,246.264h45.3" transform="translate(59 30)" fill="none" stroke="#d0d0d0" stroke-width="1"/>
    <path id="Path_14" data-name="Path 14" d="M259.017,246.82h17.035v5.088H259.017Z" transform="translate(58.942 -0.128)" fill="#114c88"/>
  </g>
</svg>
