<svg xmlns="http://www.w3.org/2000/svg" width="47" height="53" viewBox="0 0 47 53">
  <g id="Group_4" data-name="Group 4" transform="translate(-438 -229)">
    <path id="Rectangle_10" data-name="Rectangle 10" d="M5,0H33A14,14,0,0,1,47,14V48a5,5,0,0,1-5,5H5a5,5,0,0,1-5-5V5A5,5,0,0,1,5,0Z" transform="translate(438 229)" fill="#55a84a"/>
    <g id="Rectangle_11" data-name="Rectangle 11" transform="translate(438 241)" fill="#fff" stroke="#d0d0d0" stroke-width="1">
      <path d="M5,0H47a0,0,0,0,1,0,0V36a5,5,0,0,1-5,5H5a5,5,0,0,1-5-5V5A5,5,0,0,1,5,0Z" stroke="none"/>
      <path d="M5,.5H46a.5.5,0,0,1,.5.5V36A4.5,4.5,0,0,1,42,40.5H5A4.5,4.5,0,0,1,.5,36V5A4.5,4.5,0,0,1,5,.5Z" fill="none"/>
    </g>
    <g id="Rectangle_12" data-name="Rectangle 12" transform="translate(438 241)" fill="#eae8e1" stroke="#d0d0d0" stroke-width="1">
      <path d="M0,0H19a0,0,0,0,1,0,0V41a0,0,0,0,1,0,0H5a5,5,0,0,1-5-5V0A0,0,0,0,1,0,0Z" stroke="none"/>
      <path d="M1,.5H18a.5.5,0,0,1,.5.5V40a.5.5,0,0,1-.5.5H5A4.5,4.5,0,0,1,.5,36V1A.5.5,0,0,1,1,.5Z" fill="none"/>
    </g>
    <text id="XML" transform="translate(441 239)" fill="#fff" font-size="10" font-family="Roboto-Black, Roboto" font-weight="800"><tspan x="0" y="0">XML</tspan></text>
    <path id="Path_22" data-name="Path 22" d="M258.774,246.264h45.3" transform="translate(180 2)" fill="none" stroke="#d0d0d0" stroke-width="1"/>
    <path id="Path_23" data-name="Path 23" d="M258.774,246.264h45.3" transform="translate(180 8)" fill="none" stroke="#d0d0d0" stroke-width="1"/>
    <path id="Path_24" data-name="Path 24" d="M258.774,246.264h45.3" transform="translate(180 14)" fill="none" stroke="#d0d0d0" stroke-width="1"/>
    <path id="Path_25" data-name="Path 25" d="M258.774,246.264h45.3" transform="translate(180 20)" fill="none" stroke="#d0d0d0" stroke-width="1"/>
    <path id="Path_27" data-name="Path 27" d="M258.774,246.264h45.3" transform="translate(180 26)" fill="none" stroke="#d0d0d0" stroke-width="1"/>
    <path id="Path_28" data-name="Path 28" d="M258.774,246.264h45.3" transform="translate(180 32)" fill="none" stroke="#d0d0d0" stroke-width="1"/>
    <path id="Path_26" data-name="Path 26" d="M259.017,246.82h17.035v5.088H259.017Z" transform="translate(179.942 1.872)" fill="#55a84a"/>
  </g>
</svg>
