<?xml version="1.0" encoding="iso-8859-1"?>
<!-- Generator: Adobe Illustrator 19.0.1, SVG Export Plug-In . SVG Version: 6.00 Build 0)  -->
<svg version="1.1" xmlns="http://www.w3.org/2000/svg" xmlns:xlink="http://www.w3.org/1999/xlink" x="0px" y="0px"
	 viewBox="0 0 128 128" style="enable-background:new 0 0 128 128;" xml:space="preserve">
<g id="_x31_0">
	<path id="icon_15_" style="fill:#2B2B2B;" d="M84.767,33.12L82.48,31.79c-2.843-1.65-5.909-2.917-9.114-3.765l-2.536-0.671V0.127
		l3.981,0.679c9.316,1.588,17.973,5.159,25.726,10.616l3.284,2.311L84.767,33.12z M77.646,22.188c2.03,0.67,4.005,1.486,5.909,2.439
		l9.671-9.839c-4.862-2.935-10.079-5.09-15.58-6.437V22.188z M115.755,101.744L96.127,82.416l1.101-2.214
		c2.536-5.097,3.824-10.588,3.824-16.319c0-6.747-1.849-13.366-5.348-19.139l-1.387-2.29l19.242-19.18l2.341,3.225
		C123.815,37.405,128,50.332,128,63.883c0,12.158-3.453,24.018-9.982,34.3L115.755,101.744z M104.38,80.976l10.03,9.877
		c4.443-8.288,6.773-17.529,6.773-26.97c0-10.753-2.947-21.061-8.559-30.052l-9.762,9.731c3.282,6.259,5.006,13.23,5.006,20.321
		C107.868,69.838,106.697,75.575,104.38,80.976z M63.988,127.873C28.704,127.873,0,99.167,0,63.883
		C0,32.766,22.229,6.267,52.855,0.877l3.999-0.705v27.261l-2.521,0.679c-16.124,4.345-27.384,19.054-27.384,35.771
		c0,20.424,16.617,37.04,37.039,37.04c7.6,0,14.895-2.287,21.093-6.613l2.343-1.637l19.084,19.116l-3.005,2.373
		C92.319,123.004,78.285,127.873,63.988,127.873z"/>
</g>
<g id="Layer_1">
</g>
</svg>
