<?xml version="1.0" encoding="iso-8859-1"?>
<!-- Generator: Adobe Illustrator 19.0.1, SVG Export Plug-In . SVG Version: 6.00 Build 0)  -->
<svg version="1.1" xmlns="http://www.w3.org/2000/svg" xmlns:xlink="http://www.w3.org/1999/xlink" x="0px" y="0px"
	 viewBox="0 0 128 128" style="enable-background:new 0 0 128 128;" xml:space="preserve">
<g id="_x31_1">
	<path id="icon_6_" style="fill:#2A2B2B;" d="M114.576,57.701v-5.514l-0.062-0.723c-2.891-16.439-17.141-28.376-33.848-28.376
		c-10.904,0-21.106,5.204-27.55,13.816c-3.263-1.673-6.877-2.561-10.615-2.561c-11.751,0-21.602,8.901-23.44,20.487
		C8.137,57.061,0,66.912,0,78.725c0,13.3,10.656,24.142,23.729,24.142h69.287c3.036,1.322,6.402,2.045,9.934,2.045
		c13.857,0,25.051-11.193,25.051-25.03C128,70.237,122.569,61.873,114.576,57.701z M82.711,94.606H23.729
		c-8.674,0-15.468-6.98-15.468-15.881c0-8.653,6.505-15.716,14.828-16.088l3.903-0.165l0.041-3.924
		c0.083-8.777,7.022-15.943,15.468-15.943c3.387,0,6.588,1.115,9.293,3.222l3.779,2.953l2.354-4.172
		c4.626-8.178,13.341-13.258,22.738-13.258c12.577,0,23.316,8.901,25.65,21.209v2.519c-1.094-0.145-2.23-0.227-3.366-0.227
		c-13.837,0-25.03,11.193-25.03,25.03C77.919,85.395,79.695,90.476,82.711,94.606z M116.125,82.69c0,0.785-0.64,1.404-1.404,1.404
		h-7.559v7.538c0,0.785-0.62,1.404-1.404,1.404h-5.617c-0.764,0-1.404-0.62-1.404-1.404v-7.538h-7.538
		c-0.785,0-1.404-0.62-1.404-1.404v-5.617c0-0.785,0.62-1.404,1.404-1.404h7.538V68.13c0-0.785,0.64-1.404,1.404-1.404h5.617
		c0.785,0,1.404,0.62,1.404,1.404v7.538h7.559c0.764,0,1.404,0.62,1.404,1.404V82.69z"/>
</g>
<g id="Layer_1">
</g>
</svg>
