<?xml version="1.0" encoding="iso-8859-1"?>
<!-- Generator: Adobe Illustrator 19.0.1, SVG Export Plug-In . SVG Version: 6.00 Build 0)  -->
<svg version="1.1" xmlns="http://www.w3.org/2000/svg" xmlns:xlink="http://www.w3.org/1999/xlink" x="0px" y="0px"
	 viewBox="0 0 128 128" style="enable-background:new 0 0 128 128;" xml:space="preserve">
<g id="_x31_2">
	<path style="fill:#2A2B2B;" d="M64.007,37.271v-0.014c-0.001,0.003-0.004,0.006-0.007,0.006c-0.003,0-0.004-0.003-0.007-0.006
		v0.014c-5.807,5.803-14.766,7.779-21.575,7.779c0,16.653,10.079,31.202,21.575,38.782v0.009c0.003-0.003,0.004-0.003,0.007-0.006
		c0.003,0.003,0.006,0.003,0.007,0.006v-0.009c11.494-7.58,21.575-22.129,21.575-38.782C78.774,45.051,69.815,43.074,64.007,37.271z
		 M62.236,68.763l-0.021-0.02l-0.02,0.02l-7.735-7.788l3.732-3.736l4.023,4.029l8.872-8.882l3.732,3.736L62.236,68.763z
		 M124.521,96.961h-7.184V27.665c0-3.357-2.731-6.088-6.088-6.088H16.072c-3.357,0-6.088,2.731-6.088,6.088v69.296H3.479
		C1.565,96.961,0,98.526,0,100.44v2.505c0,1.913,1.565,3.479,3.479,3.479h121.043c1.913,0,3.479-1.565,3.479-3.479v-2.505
		C128,98.526,126.435,96.961,124.521,96.961z M73.767,101.188H53.555v-2.835h20.211V101.188z M112.12,94.3H15.202V27.665
		c0-0.487,0.4-0.87,0.87-0.87h95.178c0.487,0,0.87,0.383,0.87,0.87V94.3z"/>
</g>
<g id="Layer_1">
</g>
</svg>
