<?xml version="1.0" encoding="iso-8859-1"?>
<!-- Generator: Adobe Illustrator 19.0.1, SVG Export Plug-In . SVG Version: 6.00 Build 0)  -->
<svg version="1.1" xmlns="http://www.w3.org/2000/svg" xmlns:xlink="http://www.w3.org/1999/xlink" x="0px" y="0px"
	 viewBox="0 0 128 128" style="enable-background:new 0 0 128 128;" xml:space="preserve">
<g id="_x32_">
	<path id="icon_5_" style="fill:#2A2B2B;" d="M52.318,56.255 M120.35,49.517c0-11.703-6.537-22.251-16.794-27.332
		C99.06,9.041,86.674,0,72.871,0c-9.556,0-18.547,4.265-24.684,11.564c-2.72-1.468-5.78-2.252-8.896-2.252
		c-10.45,0-18.951,8.633-18.951,19.244c0,0.759,0.044,1.516,0.131,2.267C12.6,35.516,7.65,44.155,7.65,53.561
		c0,14.531,11.633,26.354,25.932,26.354h5.253v-7.19h-5.253c-10.334,0-18.741-8.597-18.741-19.164
		c0-7.568,4.374-14.444,11.143-17.521l2.784-1.266l-0.803-2.951c-0.288-1.061-0.434-2.161-0.434-3.269
		c0-6.646,5.276-12.053,11.761-12.053c2.739,0,5.303,0.933,7.415,2.698l3.067,2.565l2.226-3.321
		C56.721,11.397,64.524,7.19,72.871,7.19c11.166,0,21.149,7.64,24.276,18.58l0.47,1.646l1.575,0.672
		c8.485,3.623,13.967,12.034,13.967,21.429c0,12.797-10.188,23.207-22.711,23.207v7.19C106.936,79.914,120.35,66.279,120.35,49.517z
		 M65.8,115.062V45.314h-5.393v69.748H54.26l6.148,8.99l0.683,1.005L63.103,128l2.013-2.944l0.683-1.005l6.148-8.99H65.8z
		 M72.091,56.255 M101.75,90.443l-13.055-8.797v6.115h-6.812V45.314h-5.336v47.811h12.148v6.115L101.75,90.443z M45.184,45.314
		v42.447h-7.125v-6.115l-13.602,8.797l13.602,8.797v-6.115H50.75V45.314H45.184z"/>
</g>
<g id="Layer_1">
</g>
</svg>
