<?xml version="1.0" encoding="iso-8859-1"?>
<!-- Generator: Adobe Illustrator 19.0.1, SVG Export Plug-In . SVG Version: 6.00 Build 0)  -->
<svg version="1.1" xmlns="http://www.w3.org/2000/svg" xmlns:xlink="http://www.w3.org/1999/xlink" x="0px" y="0px"
	 viewBox="0 0 128 128" style="enable-background:new 0 0 128 128;" xml:space="preserve">
<g id="_x34_">
	<path style="fill:#2A2B2B;" d="M100.365,50.061c0-2.692,2.157-4.875,4.817-4.875s4.817,2.183,4.817,4.875s-2.157,4.875-4.817,4.875
		S100.365,52.753,100.365,50.061z M105.182,84.186c2.66,0,4.817-2.183,4.817-4.875c0-2.692-2.157-4.875-4.817-4.875
		s-4.817,2.183-4.817,4.875C100.365,82.004,102.522,84.186,105.182,84.186z M105.182,113.437c2.66,0,4.817-2.183,4.817-4.875
		c0-2.692-2.157-4.875-4.817-4.875s-4.817,2.183-4.817,4.875C100.365,111.254,102.522,113.437,105.182,113.437z M120.776,64.606
		c4.388,3.321,7.224,8.606,7.224,14.545c0,5.939-2.836,11.224-7.224,14.545c4.388,3.321,7.224,8.557,7.224,14.473
		c0,10.133-8.121,18.255-18.109,18.255H18.109C8.121,126.424,0,118.303,0,108.315c0-5.988,2.836-11.273,7.224-14.618
		C2.836,90.4,0,85.091,0,79.152c0-5.939,2.836-11.224,7.224-14.545C2.836,61.285,0,56.048,0,50.133
		c0-3.976,1.568-7.629,3.015-10.565l18.1-32.514c1.6-3.345,4.97-5.479,8.655-5.479H98.23c3.685,0,7.055,2.133,8.655,5.479
		l17.948,32.362c1.502,3.118,3.167,6.644,3.167,10.571v0.145C128,56.048,125.164,61.285,120.776,64.606z M120.727,108.315
		c0-6.133-4.848-10.982-10.836-10.982H18.109c-5.988,0-10.836,4.848-10.836,10.836c0,6.133,4.848,10.982,10.836,10.982h91.782
		C115.879,119.151,120.727,114.303,120.727,108.315z M120.727,79.152c0-6.012-4.824-10.909-10.74-10.909H18.012
		c-2.958,0-5.649,1.212-7.588,3.2c-1.94,1.988-3.152,4.703-3.152,7.709c0,6.012,4.824,10.909,10.74,10.909h91.976
		c2.958,0,5.649-1.212,7.588-3.2C119.515,84.873,120.727,82.158,120.727,79.152z M120.727,49.988
		c0-5.988-4.848-10.836-10.836-10.836H18.109c-1.188,0-2.352,0.194-3.442,0.558c-4.291,1.43-7.394,5.503-7.394,10.279
		c0,6.133,4.848,10.982,10.836,10.982h91.782c5.988,0,10.836-4.848,10.836-10.836V49.988z"/>
</g>
<g id="Layer_1">
</g>
</svg>
