<?xml version="1.0" encoding="iso-8859-1"?>
<!-- Generator: Adobe Illustrator 19.0.1, SVG Export Plug-In . SVG Version: 6.00 Build 0)  -->
<svg version="1.1" xmlns="http://www.w3.org/2000/svg" xmlns:xlink="http://www.w3.org/1999/xlink" x="0px" y="0px"
	 viewBox="0 0 128 128" style="enable-background:new 0 0 128 128;" xml:space="preserve">
<g id="_x37_">
	<path style="fill:#2A2B2B;" d="M46.167,100.175H29.216V83.217h16.951V100.175z M71.611,56.778H54.653v43.397h16.958V56.778z
		 M97.047,73.005H80.09v27.17h16.958V73.005z M122.487,46.566h-16.961v53.609h16.961V46.566z M9.812,109.891V8.296H0v111.407h128
		v-9.813H9.812z M111.185,12.75c-4.693,0-8.486,3.793-8.486,8.462c0,0.759,0.095,1.517,0.308,2.204
		c0.19,0.735,0.474,1.422,0.853,2.038L92.649,40.602c-1.422-1.114-3.224-1.778-5.168-1.778c-1.564,0-3.034,0.427-4.29,1.185
		L71.742,26.427c0.332-0.877,0.498-1.849,0.498-2.844c0-4.67-3.793-8.462-8.462-8.462c-4.693,0-8.486,3.793-8.486,8.462
		c0,1.398,0.332,2.726,0.948,3.887L39.529,57.977c-0.593-0.118-1.209-0.19-1.825-0.19c-4.693,0-8.486,3.793-8.486,8.462
		c0,1.304,0.284,2.536,0.83,3.627L14.284,83.861l3.129,3.556L33.2,73.432c1.304,0.83,2.844,1.304,4.504,1.304
		c4.67,0,8.462-3.793,8.462-8.486c0-2.323-0.948-4.456-2.489-5.973L59.7,31.026c1.209,0.664,2.607,1.043,4.077,1.043
		c1.896,0,3.674-0.64,5.073-1.73L79.92,43.47c-0.593,1.138-0.924,2.442-0.924,3.816c0,4.693,3.793,8.486,8.486,8.486
		c4.67,0,8.462-3.793,8.462-8.486c0-0.924-0.142-1.802-0.427-2.631l11.781-15.905c1.161,0.593,2.489,0.948,3.887,0.948
		c4.67,0,8.462-3.793,8.462-8.486C119.647,16.543,115.855,12.75,111.185,12.75z"/>
</g>
<g id="Layer_1">
</g>
</svg>
