<?xml version="1.0" encoding="iso-8859-1"?>
<!-- Generator: Adobe Illustrator 19.0.1, SVG Export Plug-In . SVG Version: 6.00 Build 0)  -->
<svg version="1.1" xmlns="http://www.w3.org/2000/svg" xmlns:xlink="http://www.w3.org/1999/xlink" x="0px" y="0px"
	 viewBox="0 0 128 128" style="enable-background:new 0 0 128 128;" xml:space="preserve">
<g id="_x31_5">
	<path id="icon_8_" style="fill:#2A2B2B;" d="M128,63.91l-4.341,2.677l-0.072,0.036l-12.97,7.977v-7.977H59.152l9.913,18.632
		c0.669,1.248,1.954,2.008,3.365,2.008h6.114v-4.938h15.231v15.521H78.544V92.69H72.43c-3.419,0-6.548-1.863-8.158-4.884
		l-11.27-21.183H27.803c-1.248,6.458-6.928,11.324-13.766,11.324C6.277,77.947,0,71.67,0,63.91c0-7.742,6.277-14.037,14.037-14.037
		c6.82,0,12.5,4.866,13.766,11.324H38.15l11.089-20.839c1.61-3.021,4.721-4.884,8.14-4.884h7.616
		c1.085-3.093,4.052-5.318,7.525-5.318c4.432,0,8.032,3.6,8.032,8.032c0,4.414-3.6,8.014-8.032,8.014
		c-3.473,0-6.422-2.207-7.525-5.3h-7.616c-1.411,0-2.695,0.76-3.346,2.008l-9.75,18.288h66.333v-8.104l13.024,8.104l0.018,0.018
		L128,63.91z"/>
</g>
<g id="Layer_1">
</g>
</svg>
