<?xml version="1.0" encoding="iso-8859-1"?>
<!-- Generator: Adobe Illustrator 19.0.1, SVG Export Plug-In . SVG Version: 6.00 Build 0)  -->
<svg version="1.1" xmlns="http://www.w3.org/2000/svg" xmlns:xlink="http://www.w3.org/1999/xlink" x="0px" y="0px"
	 viewBox="0 0 128 128" style="enable-background:new 0 0 128 128;" xml:space="preserve">
<g id="_x38_">
	<path id="icon_12_" style="fill:#2A2B2B;" d="M112.636,93.593v-18.16H67.174V64.841h29.699c4.624,0,8.407-3.783,8.407-8.407V19.715
		c0-4.624-3.783-8.407-8.407-8.407H31.191c-4.645,0-8.407,3.783-8.407,8.407v36.719c0,4.624,3.762,8.407,8.407,8.407h29.677v10.593
		H15.427v18.16H0v23.099h37.454V93.593H21.733V81.739h39.136v11.854H45.273v23.099h37.454V93.593H67.174V81.739h39.157v11.854
		H90.546v23.099H128V93.593H112.636z M31.191,56.434V19.715h65.681l-0.021,36.719H31.191z"/>
</g>
<g id="Layer_1">
</g>
</svg>
