<?xml version="1.0" encoding="iso-8859-1"?>
<!-- Generator: Adobe Illustrator 19.0.1, SVG Export Plug-In . SVG Version: 6.00 Build 0)  -->
<svg version="1.1" xmlns="http://www.w3.org/2000/svg" xmlns:xlink="http://www.w3.org/1999/xlink" x="0px" y="0px"
	 viewBox="0 0 128 128" style="enable-background:new 0 0 128 128;" xml:space="preserve">
<g id="_x31_3">
	<path id="icon_1_" style="fill:#2A2B2B;" d="M76.893,112.184c-1.119-4.519-4.664-8.063-9.183-9.183v-9.784h41.292
		c4.353,0,7.898-3.545,7.898-7.918V19.92c0-4.374-3.545-7.918-7.898-7.918H68.084l-4.747-7.297C61.43,1.762,58.196,0,54.693,0H20.2
		c-4.353,0-7.898,3.565-7.898,7.918v77.38c0,4.374,3.545,7.918,7.898,7.918h41.292v9.784c-4.519,1.119-8.063,4.664-9.183,9.183
		H10.416v6.219h41.893c1.368,5.514,6.364,9.597,12.292,9.597c5.929,0,10.924-4.084,12.292-9.597h40.69v-6.219H76.893z
		 M18.521,23.797V7.918c0-0.912,0.767-1.7,1.679-1.7h34.493c1.389,0,2.674,0.705,3.42,1.866l6.592,10.136h44.297
		c0.912,0,1.679,0.767,1.679,1.7v3.876H18.521z M42.504,57.895c0-12.188,9.888-22.076,22.097-22.076
		c12.189,0,22.097,9.888,22.097,22.076c0,12.209-9.908,22.097-22.097,22.097C52.392,79.992,42.504,70.105,42.504,57.895z
		 M64.601,121.781c-3.586,0-6.488-2.902-6.488-6.488c0-3.565,2.902-6.488,6.488-6.488c3.586,0,6.488,2.923,6.488,6.488
		C71.089,118.879,68.187,121.781,64.601,121.781z M79.153,64.902c-2.674,5.555-8.395,9.162-14.552,9.162
		c-7.69,0-14.137-5.39-15.754-12.603h-4.27l6.467-7.11l6.488,7.11h-4.394c1.513,4.892,6.074,8.457,11.463,8.457
		c4.581,0,8.83-2.674,10.82-6.82L79.153,64.902z M84.48,54.351l-6.467,7.11l-6.488-7.11h4.54c-1.513-4.892-6.074-8.457-11.463-8.457
		c-3.213,0-6.219,1.264-8.499,3.524l-2.923-2.923c3.047-3.068,7.11-4.747,11.421-4.747c7.69,0,14.137,5.41,15.754,12.603H84.48z"/>
</g>
<g id="Layer_1">
</g>
</svg>
