<?xml version="1.0" encoding="iso-8859-1"?>
<!-- Generator: Adobe Illustrator 19.0.1, SVG Export Plug-In . SVG Version: 6.00 Build 0)  -->
<svg version="1.1" xmlns="http://www.w3.org/2000/svg" xmlns:xlink="http://www.w3.org/1999/xlink" x="0px" y="0px"
	 viewBox="0 0 128 128" style="enable-background:new 0 0 128 128;" xml:space="preserve">
<g id="_x33_">
	<path id="icon_2_" style="fill:#2A2B2B;" d="M80.64,25.148H66.304v-1.461c0-2.018-1.641-3.659-3.674-3.659H50.372
		c-2.033,0-3.689,1.641-3.689,3.659v27.317c0,1.596,1.325,2.906,2.936,2.906h31.774c1.611,0,2.936-1.31,2.936-2.906V28.823
		C84.329,26.79,82.673,25.148,80.64,25.148z M48.188,23.688c0-1.19,0.979-2.153,2.184-2.153H62.63c1.19,0,2.168,0.964,2.168,2.153
		v2.967H80.64c1.205,0,2.184,0.979,2.184,2.168v0.482c-0.422-0.256-0.919-0.392-1.431-0.392H63.292v-2.214
		c0-1.596-1.295-2.906-2.921-2.906H49.619c-0.512,0-1.009,0.135-1.431,0.392V23.688z M124.311,76.484h-14.336v-1.461
		c0-2.018-1.641-3.659-3.674-3.659H94.042c-2.033,0-3.689,1.641-3.689,3.659v27.317c0,1.596,1.325,2.906,2.936,2.906h31.774
		c1.611,0,2.936-1.31,2.936-2.906V80.158C128,78.125,126.344,76.484,124.311,76.484z M91.859,75.023c0-1.19,0.979-2.153,2.184-2.153
		H106.3c1.19,0,2.168,0.964,2.168,2.153v2.967h15.842c1.205,0,2.184,0.979,2.184,2.168v0.482c-0.422-0.256-0.919-0.392-1.431-0.392
		h-18.101v-2.214c0-1.596-1.295-2.906-2.921-2.906H93.289c-0.512,0-1.009,0.135-1.431,0.392V75.023z M0,82.884l0,22.182
		c0,1.596,1.325,2.906,2.936,2.906h31.774c1.611,0,2.936-1.31,2.936-2.906V77.749c0-2.018-1.656-3.659-3.689-3.659H21.7
		c-2.033,0-3.674,1.641-3.674,3.659v1.461H3.689C1.656,79.209,0,80.851,0,82.884z M36.141,78.246
		c-0.422-0.256-0.919-0.392-1.431-0.392H23.959c-1.626,0-2.921,1.31-2.921,2.906v2.214H2.936c-0.512,0-1.009,0.136-1.431,0.392
		v-0.482c0-1.19,0.979-2.168,2.184-2.168h15.842v-2.967c0-1.19,0.979-2.153,2.168-2.153h12.258c1.205,0,2.184,0.964,2.184,2.153
		V78.246z M87.01,87.537v4.518H41.743v-4.518h21.429V56.169h4.518v31.367H87.01z"/>
</g>
<g id="Layer_1">
</g>
</svg>
