<?xml version="1.0" encoding="iso-8859-1"?>
<!-- Generator: Adobe Illustrator 19.0.1, SVG Export Plug-In . SVG Version: 6.00 Build 0)  -->
<svg version="1.1" xmlns="http://www.w3.org/2000/svg" xmlns:xlink="http://www.w3.org/1999/xlink" x="0px" y="0px"
	 viewBox="0 0 128 128" style="enable-background:new 0 0 128 128;" xml:space="preserve">
<g id="_x31_4">
	<path id="icon_19_" style="fill:#2B2B2B;" d="M66.279,95.822c-0.079-0.742-0.742-1.378-1.576-1.378h-4.544
		c-0.636,0-1.298-0.517-1.47-1.153c-0.45-1.576-1.02-3.087-1.802-4.438c-0.384-0.649-0.305-1.365,0.212-1.894l3.166-3.272
		c0.57-0.596,0.609-1.457,0.106-2.106c-1.391-1.775-3.06-3.378-4.848-4.862c-0.636-0.517-1.576-0.411-2.12,0.106l-3.259,3.166
		c-0.49,0.477-1.285,0.543-1.908,0.212c-1.378-0.729-2.848-1.365-4.425-1.788c-0.742-0.199-1.166-0.742-1.166-1.484v-4.531
		c0-0.848-0.53-1.497-1.364-1.59c-1.166-0.119-2.332-0.199-3.484-0.199c-0.662,0-1.311,0.027-1.974,0.066
		c-0.503,0.04-1.007,0.079-1.51,0.132c-0.742,0.093-1.378,0.742-1.378,1.59v4.531c0,0.636-0.517,1.298-1.153,1.484
		c-0.411,0.119-0.821,0.238-1.219,0.371c-1.139,0.384-2.226,0.835-3.219,1.417c-0.649,0.384-1.364,0.305-1.894-0.212l-3.272-3.166
		c-0.596-0.57-1.457-0.609-2.106-0.106c-1.775,1.391-3.378,3.073-4.848,4.862c-0.53,0.636-0.424,1.576,0.093,2.106l3.166,3.272
		c0.477,0.49,0.543,1.272,0.212,1.894c-0.715,1.378-1.365,2.861-1.788,4.438c-0.199,0.742-0.742,1.153-1.484,1.153h-4.531
		c-0.848,0-1.497,0.53-1.576,1.378c-0.132,1.153-0.212,2.318-0.212,3.484c0,1.153,0.079,2.318,0.212,3.484
		c0.079,0.729,0.729,1.365,1.576,1.365h4.531c0.636,0,1.298,0.517,1.484,1.166c0.45,1.576,1.007,3.073,1.788,4.425
		c0.384,0.662,0.318,1.365-0.212,1.908l-3.166,3.259c-0.57,0.596-0.609,1.47-0.093,2.12c1.391,1.775,3.06,3.365,4.848,4.849
		c0.636,0.53,1.576,0.411,2.106-0.106l3.272-3.166c0.49-0.464,1.272-0.543,1.894-0.212c1.378,0.729,2.861,1.364,4.438,1.802
		c0.742,0.199,1.153,0.729,1.153,1.47v4.544c0,0.835,0.53,1.484,1.378,1.576c1.153,0.119,2.318,0.212,3.484,0.212
		c1.153,0,2.318-0.079,3.484-0.212c0.742-0.079,1.364-0.742,1.364-1.576v-4.544c0-0.636,0.517-1.298,1.166-1.47
		c1.576-0.45,3.073-1.02,4.425-1.802c0.662-0.384,1.364-0.305,1.908,0.212l3.259,3.166c0.596,0.57,1.471,0.609,2.12,0.106
		c1.775-1.391,3.365-3.06,4.848-4.849c0.53-0.636,0.411-1.576-0.106-2.12l-2.928-3.007l-0.238-0.252
		c-0.464-0.49-0.543-1.285-0.212-1.908c0.517-0.994,0.994-2.027,1.391-3.113c0.146-0.424,0.291-0.861,0.411-1.311
		c0.199-0.742,0.729-1.166,1.47-1.166h4.544c0.835,0,1.484-0.53,1.576-1.365c0.119-1.166,0.212-2.332,0.212-3.484
		C66.491,98.141,66.411,96.975,66.279,95.822z M44.553,111.905c-2.04,1.113-4.372,1.749-6.862,1.749
		c-7.909,0-14.347-6.438-14.347-14.347c0-5.325,2.914-9.975,7.22-12.439c1.59-0.927,3.365-1.537,5.259-1.788
		c0.609-0.079,1.232-0.119,1.868-0.119c7.909,0,14.347,6.425,14.347,14.347c0,2.676-0.742,5.18-2.014,7.326
		C48.7,108.844,46.805,110.673,44.553,111.905z M101.329,13.869H31.402c-2.003,0-3.639,1.636-3.639,3.657v53.314
		c0.551-0.184,1.121-0.349,1.691-0.515c0.882-0.257,1.599-1.176,1.599-2.058v-6.285c0-1.176,0.882-2.077,1.911-2.205
		c0.698-0.073,1.397-0.129,2.095-0.184V21.183h62.613v88.286H66.209c-0.551,1.507-1.213,2.94-1.93,4.319
		c-0.459,0.864-0.349,1.966,0.294,2.646l0.331,0.349h36.425c2.003,0,3.639-1.636,3.639-3.657V17.526
		C104.968,15.504,103.332,13.869,101.329,13.869z M40.615,0.001h74.627c2.018,0,3.654,1.636,3.655,3.654v100.309
		c0,0.033,0,0.066,0,0.099c-0.027,2.018-1.686,3.632-3.704,3.605c-2.018-0.027-3.632-1.686-3.604-3.704V7.309H40.615
		c-0.033,0-0.066,0-0.1,0c-2.018-0.027-3.632-1.686-3.604-3.704C36.938,1.587,38.597-0.027,40.615,0.001L40.615,0.001z
		 M90.284,71.225H44.799c-1.016,0-1.838-0.822-1.838-1.838s0.822-1.838,1.838-1.838h45.485c1.016,0,1.838,0.822,1.838,1.838
		S91.3,71.225,90.284,71.225z M90.284,60.199H41.152c-1.016,0-1.838-0.822-1.838-1.838c0-1.016,0.822-1.838,1.838-1.838h49.132
		c1.016,0,1.838,0.822,1.838,1.838C92.122,59.377,91.3,60.199,90.284,60.199z M90.284,49.172H41.152
		c-1.016,0-1.838-0.822-1.838-1.838s0.822-1.838,1.838-1.838h49.132c1.016,0,1.838,0.822,1.838,1.838S91.3,49.172,90.284,49.172z
		 M90.284,38.146H41.152c-1.016,0-1.838-0.822-1.838-1.838c0-1.016,0.822-1.838,1.838-1.838h49.132c1.016,0,1.838,0.822,1.838,1.838
		C92.122,37.324,91.3,38.146,90.284,38.146z"/>
</g>
<g id="Layer_1">
</g>
</svg>
