<?xml version="1.0" encoding="iso-8859-1"?>
<!-- Generator: Adobe Illustrator 19.0.1, SVG Export Plug-In . SVG Version: 6.00 Build 0)  -->
<svg version="1.1" xmlns="http://www.w3.org/2000/svg" xmlns:xlink="http://www.w3.org/1999/xlink" x="0px" y="0px"
	 viewBox="0 0 128 128" style="enable-background:new 0 0 128 128;" xml:space="preserve">
<g id="_x39_">
	<path id="icon_10_" style="fill:#2A2B2B;" d="M105.265,89.145v4.129h3.973v-0.156L105.265,89.145z M125.21,109.11l-15.971-15.991
		v0.156h-3.973v-4.129l-2.961-2.961c-1.344-1.324-2.941-2.162-4.636-2.532c-0.857-0.195-1.733-0.273-2.61-0.214l-6.155-6.155
		c0.915-1.246,1.734-2.532,2.493-3.856c2.629-4.577,4.343-9.641,5.025-14.92c0.253-1.773,0.37-3.603,0.37-5.434
		c0-2.805-0.273-5.551-0.818-8.258c-0.526-2.571-1.285-5.064-2.279-7.479c-1.071-2.591-2.415-5.064-4.012-7.401
		c-1.422-2.103-3.058-4.071-4.889-5.902c-0.156-0.156-0.292-0.292-0.448-0.429c-0.721-0.701-1.461-1.383-2.22-2.006
		c-1.266-1.071-2.571-2.045-3.954-2.941c-1.714-1.13-3.506-2.104-5.356-2.941c-1.149-0.545-2.318-1.013-3.525-1.422
		c-2.123-0.74-4.305-1.305-6.525-1.675c-1.402-0.253-2.844-0.429-4.285-0.506c-0.915-0.058-1.831-0.097-2.746-0.097
		c-2.026,0-4.032,0.136-5.999,0.428c-1.344,0.195-2.668,0.467-3.993,0.799c-1.188,0.292-2.357,0.643-3.506,1.032
		c-1.5,0.526-2.941,1.11-4.363,1.811c-0.779,0.37-1.539,0.76-2.279,1.208c-1.344,0.74-2.629,1.578-3.876,2.493
		c-1.753,1.266-3.428,2.688-4.986,4.246c-0.097,0.097-0.195,0.195-0.292,0.312c-0.993,0.993-1.909,2.026-2.766,3.116
		c-3.428,4.246-5.921,9.096-7.382,14.277c-1.032,3.642-1.578,7.46-1.578,11.336c0,2.63,0.253,5.22,0.721,7.752
		c1.169,6.135,3.701,11.881,7.46,16.867c0.993,1.324,2.084,2.571,3.233,3.779c0.195,0.214,0.409,0.429,0.604,0.623
		c1.519,1.519,3.155,2.922,4.869,4.168c1.149,0.838,2.337,1.617,3.564,2.337c2.571,1.48,5.278,2.688,8.122,3.584
		c1.305,0.409,2.63,0.76,3.973,1.013c2.746,0.604,5.59,0.896,8.473,0.896c6.544,0,12.855-1.519,18.542-4.402
		c1.363-0.662,2.688-1.441,3.973-2.279c0.584-0.37,1.169-0.779,1.734-1.188l6.155,6.174c-0.156,2.591,0.76,5.201,2.766,7.187
		l22.905,22.944c1.87,1.85,4.305,2.766,6.7,2.766c2.435,0,4.869-0.915,6.7-2.766C128.93,118.848,128.93,112.83,125.21,109.11z
		 M75.835,73.135c-0.136,0.136-0.273,0.273-0.429,0.409c-0.136,0.156-0.292,0.292-0.448,0.429c-1.208,1.11-2.493,2.103-3.837,2.96
		c-0.487,0.331-0.974,0.623-1.48,0.915c-1.071,0.604-2.162,1.13-3.292,1.578c-1.227,0.487-2.493,0.896-3.779,1.208
		c-1.773,0.428-3.603,0.701-5.473,0.779c-0.448,0.019-0.915,0.039-1.363,0.039c-0.857,0-1.714-0.039-2.552-0.117
		c-2.026-0.175-4.012-0.565-5.921-1.169c-2.435-0.76-4.772-1.85-6.914-3.253c-1.675-1.071-3.233-2.337-4.674-3.778
		c-3.487-3.487-5.96-7.713-7.246-12.31c-0.701-2.493-1.071-5.084-1.071-7.752c0-4.227,0.896-8.278,2.629-11.979
		c1.363-2.98,3.292-5.726,5.687-8.122c1.519-1.519,3.175-2.844,4.967-3.954c1.324-0.857,2.707-1.578,4.149-2.181
		c0.019,0,0.019,0,0.019,0c0.292-0.136,0.584-0.253,0.896-0.351c1.578-0.604,3.214-1.052,4.889-1.363
		c1.675-0.312,3.409-0.467,5.142-0.467c1.032,0,2.045,0.058,3.058,0.175c1.344,0.136,2.688,0.37,3.973,0.701
		c1.324,0.331,2.63,0.76,3.876,1.285c3.389,1.383,6.505,3.467,9.193,6.155c3.272,3.272,5.629,7.168,6.973,11.433
		c0.312,0.915,0.545,1.87,0.74,2.824c0.409,1.889,0.604,3.857,0.604,5.843C84.152,60.65,81.211,67.759,75.835,73.135z
		 M113.663,76.559c0,0.203-0.068,0.518-0.18,0.923c-0.203,0.675-0.495,1.216-0.878,1.621c-0.563,0.608-1.306,1.013-2.207,1.193
		c-0.563,0.135-1.531,0.225-2.95,0.293v3.04h5.359v15.739h4.593V76.559H113.663z M102.27,79.463
		c-1.058-1.891-2.905-2.905-5.494-3.04c-0.878,1.531-1.824,3.017-2.882,4.458l0.18,0.18c0.473-0.63,1.171-0.968,2.094-0.968
		c1.329,0,2.207,0.675,2.612,1.981c0.338,1.013,0.518,2.432,0.585,4.278l1.644,1.644c1.013-0.068,2.026,0.023,3.017,0.248v-0.067
		C104.026,84.417,103.441,81.512,102.27,79.463z M71.625,80.589v0.946c0.585-0.338,1.148-0.675,1.711-1.058
		C72.863,80.521,72.278,80.567,71.625,80.589z M77.839,76.559c0,0.113-0.022,0.293-0.067,0.495c0.18-0.158,0.36-0.315,0.518-0.495
		H77.839z M76.984,95.225v4.143h4.593V92.59C80.091,93.558,78.56,94.459,76.984,95.225z M66.468,79.463
		c-1.171-2.027-3.22-3.062-6.124-3.062c-2.905,0-4.931,1.036-6.102,3.062c-0.878,1.553-1.441,3.58-1.644,6.102
		c0.968,0.09,1.959,0.135,2.95,0.135c0.518,0,1.058-0.023,1.576-0.045c0.113-1.509,0.293-2.702,0.585-3.58
		c0.428-1.306,1.306-1.981,2.634-1.981c1.351,0,2.207,0.675,2.634,1.981c0.203,0.698,0.36,1.576,0.473,2.679
		c1.486-0.36,2.95-0.833,4.368-1.396C67.527,81.827,67.076,80.521,66.468,79.463z M42.016,76.559c0,0.203-0.045,0.518-0.18,0.923
		c-0.18,0.675-0.473,1.216-0.878,1.621c-0.563,0.608-1.283,1.013-2.184,1.193c-0.248,0.067-0.585,0.113-1.013,0.157
		c2.477,1.621,5.179,2.882,7.993,3.76v-7.656H42.016z M41.16,98.107v1.261h4.593v-0.09C44.2,98.985,42.669,98.58,41.16,98.107z
		 M27.65,91.262c-0.113,1.193-0.27,2.161-0.495,2.927c-0.405,1.396-1.283,2.094-2.612,2.094c-1.328,0-2.229-0.698-2.657-2.094
		c-0.428-1.373-0.63-3.377-0.63-6.012c0-0.901,0.022-1.711,0.067-2.454c-1.328-1.396-2.589-2.837-3.738-4.368
		c-0.608,1.824-0.923,4.098-0.923,6.823c0,3.76,0.585,6.665,1.756,8.691c1.171,2.049,3.22,3.062,6.124,3.062
		c2.905,0,4.931-1.013,6.102-3.062c0.473-0.833,0.856-1.801,1.126-2.905C30.352,93.131,28.979,92.23,27.65,91.262z M6.192,76.559
		c0,0.203-0.045,0.518-0.158,0.923c-0.203,0.675-0.495,1.216-0.878,1.621c-0.563,0.608-1.306,1.013-2.207,1.193
		C2.387,80.431,1.396,80.521,0,80.589v3.04h5.359v15.739h4.593V76.559H6.192z M114.901,41.973c-1.171-2.049-3.197-3.085-6.102-3.085
		c-2.905,0-4.954,1.036-6.102,3.085c-0.248,0.428-0.45,0.878-0.631,1.373c0.631,3.13,0.946,6.305,0.946,9.547
		c0,2.117-0.135,4.233-0.428,6.282c0.045,0.067,0.067,0.135,0.113,0.203c1.148,2.027,3.197,3.04,6.102,3.04
		c2.905,0,4.931-1.013,6.102-3.04c1.171-2.049,1.756-4.954,1.756-8.714S116.072,44,114.901,41.973z M111.411,56.676
		c-0.405,1.396-1.283,2.094-2.612,2.094c-1.328,0-2.207-0.698-2.634-2.094c-0.45-1.373-0.653-3.377-0.653-6.012
		c0-2.747,0.203-4.773,0.653-6.102c0.428-1.306,1.306-1.981,2.634-1.981c1.329,0,2.207,0.675,2.612,1.981
		c0.428,1.328,0.63,3.355,0.63,6.102C112.042,53.299,111.839,55.303,111.411,56.676z M86.846,42.874
		c-0.585,0.067-1.441,0.157-2.589,0.203v3.062h3.445C87.476,45.035,87.206,43.932,86.846,42.874z M74.304,39.046
		c0,0.203-0.045,0.518-0.158,0.923c-0.203,0.675-0.495,1.216-0.878,1.621c-0.563,0.608-1.306,1.013-2.207,1.216
		c-0.563,0.113-1.554,0.203-2.95,0.27v3.062h5.359v15.717h4.593V39.046H74.304z M62.933,41.973
		c-1.171-2.049-3.197-3.085-6.102-3.085c-2.905,0-4.931,1.036-6.102,3.085c-1.171,2.027-1.756,4.931-1.756,8.691
		s0.585,6.665,1.756,8.714c1.171,2.027,3.197,3.04,6.102,3.04c2.905,0,4.931-1.013,6.102-3.04c1.171-2.049,1.756-4.954,1.756-8.714
		S64.104,44,62.933,41.973z M59.443,56.676c-0.405,1.396-1.283,2.094-2.612,2.094c-1.329,0-2.207-0.698-2.635-2.094
		c-0.428-1.373-0.653-3.377-0.653-6.012c0-2.747,0.225-4.773,0.653-6.102c0.428-1.306,1.306-1.981,2.635-1.981
		c1.328,0,2.207,0.675,2.612,1.981c0.428,1.328,0.631,3.355,0.631,6.102C60.074,53.299,59.871,55.303,59.443,56.676z M38.503,39.046
		c0,0.203-0.068,0.518-0.18,0.923c-0.203,0.675-0.495,1.216-0.878,1.621c-0.563,0.608-1.306,1.013-2.184,1.216
		c-0.563,0.113-1.554,0.203-2.972,0.27v3.062h5.359v15.717h4.593V39.046H38.503z M25.781,39.046
		c-2.004,4.278-3.04,8.962-3.04,13.848c0,3.085,0.428,6.079,1.238,8.962h2.117V39.046H25.781z M9.952,39.046h-3.76
		c0,0.203-0.045,0.518-0.158,0.923c-0.203,0.675-0.495,1.216-0.878,1.621c-0.563,0.608-1.306,1.013-2.207,1.216
		c-0.563,0.113-1.554,0.203-2.95,0.27v3.062h5.359v15.717h3.603c-0.54-2.927-0.833-5.922-0.833-8.962
		c0-4.481,0.63-8.894,1.824-13.105V39.046z M113.663,2.862c0,0.203-0.068,0.518-0.18,0.923c-0.203,0.675-0.495,1.216-0.878,1.621
		c-0.563,0.608-1.306,1.013-2.184,1.216c-0.563,0.113-1.554,0.203-2.972,0.27v3.062h5.359v15.717h4.593V2.862H113.663z
		 M102.292,5.789c-1.171-2.049-3.22-3.085-6.125-3.085c-2.905,0-4.931,1.036-6.102,3.085c-1.171,2.027-1.756,4.931-1.756,8.691
		c0,1.621,0.113,3.062,0.315,4.346c0.18,0.158,0.338,0.315,0.518,0.495c2.117,2.117,4.008,4.391,5.652,6.822
		c0.428,0.068,0.878,0.09,1.373,0.09c2.905,0,4.954-1.013,6.125-3.04c1.148-2.049,1.734-4.931,1.734-8.714
		C104.026,10.72,103.441,7.816,102.292,5.789z M98.802,20.493c-0.428,1.396-1.306,2.094-2.635,2.094
		c-1.328,0-2.207-0.698-2.634-2.094c-0.428-1.374-0.653-3.377-0.653-6.012c0-2.747,0.225-4.773,0.653-6.102
		c0.428-1.306,1.306-1.981,2.634-1.981c1.329,0,2.207,0.675,2.635,1.981c0.405,1.328,0.608,3.355,0.608,6.102
		C99.41,17.115,99.207,19.119,98.802,20.493z M84.369,5.789c-1.171-2.049-3.197-3.085-6.102-3.085c-2.905,0-4.954,1.036-6.102,3.085
		c-0.383,0.653-0.698,1.419-0.946,2.274c1.396,0.473,2.747,1.013,4.075,1.644c0.09-0.518,0.203-0.946,0.338-1.328
		c0.428-1.306,1.306-1.981,2.634-1.981c1.329,0,2.207,0.675,2.612,1.981c0.36,1.103,0.563,2.657,0.608,4.728
		c1.599,1.036,3.107,2.162,4.571,3.4c0.045-0.631,0.068-1.329,0.068-2.027C86.125,10.72,85.54,7.816,84.369,5.789z M59.083,20.245
		v5.427h4.593v-4.616C62.19,20.673,60.637,20.402,59.083,20.245z M59.939,2.862c0,0.203-0.068,0.518-0.18,0.923
		c-0.203,0.675-0.495,1.216-0.878,1.621c-0.045,0.045-0.09,0.113-0.158,0.135c1.666,0.09,3.333,0.293,4.954,0.585V2.862H59.939z
		 M43.952,22.159c-0.293,0.203-0.63,0.338-1.036,0.405c0,0,0,0-0.023,0c-1.666,0.698-3.265,1.531-4.796,2.522
		c1.126,0.765,2.567,1.148,4.346,1.148c2.905,0,4.954-1.013,6.102-3.04c0.428-0.765,0.788-1.621,1.058-2.612
		C47.667,20.943,45.776,21.461,43.952,22.159z M48.545,5.789c-1.148-2.049-3.197-3.085-6.102-3.085
		c-2.905,0-4.931,1.036-6.102,3.085c-0.675,1.171-1.148,2.612-1.441,4.346c1.644-0.811,3.31-1.486,5.044-2.094
		c0.45-1.081,1.283-1.644,2.499-1.644c0.631,0,1.148,0.158,1.554,0.45c1.531-0.383,3.062-0.698,4.616-0.923
		C48.59,5.879,48.568,5.834,48.545,5.789z M30.645,5.789c-1.171-2.049-3.197-3.085-6.102-3.085c-2.905,0-4.954,1.036-6.124,3.085
		c-1.148,2.027-1.734,4.931-1.734,8.691c0,3.783,0.585,6.665,1.734,8.714c0.023,0.023,0.045,0.068,0.067,0.09
		c0.991-1.261,2.049-2.454,3.197-3.603c-0.293-1.306-0.428-3.04-0.428-5.201c0-2.747,0.203-4.773,0.63-6.102
		c0.45-1.306,1.329-1.981,2.657-1.981c1.329,0,2.207,0.675,2.612,1.981c0.405,1.306,0.63,3.31,0.63,6.034
		c1.441-1.058,2.927-2.027,4.481-2.882C32.018,9.167,31.478,7.253,30.645,5.789z M6.214,2.862c0,0.203-0.067,0.518-0.18,0.923
		C5.832,4.461,5.539,5.001,5.156,5.407C4.593,6.014,3.85,6.42,2.95,6.622C2.387,6.735,1.396,6.825,0,6.893v3.062h5.359v15.717h4.593
		V2.862H6.214z"/>
</g>
<g id="Layer_1">
</g>
</svg>
